<svg width="10" height="9" viewBox="0 0 10 9" fill="none" xmlns="http://www.w3.org/2000/svg">
<path d="M6.25597 2.98927L6.37524 3.21857L6.63129 3.25386L9.31537 3.6238L7.39152 5.40256L7.1901 5.58879L7.23895 5.85872L7.69915 8.40186L5.2541 7.18276L5.03099 7.07152L4.80789 7.18276L2.36284 8.40186L2.82304 5.85872L2.87189 5.58879L2.67047 5.40256L0.746621 3.6238L3.4307 3.25386L3.68675 3.21857L3.80602 2.98927L5.03099 0.634172L6.25597 2.98927ZM7.69576 8.95887C7.76851 8.99559 7.85299 9.00783 7.93396 8.99448L0.0619837 3.52607C0.0633038 3.62059 0.104139 3.71074 0.175516 3.77673L2.33103 5.76969L1.82178 8.58387C1.80984 8.64933 1.81748 8.71666 1.84383 8.77821C1.87018 8.83977 1.9142 8.89309 1.97088 8.93213C2.02756 8.97118 2.09465 8.99437 2.16453 8.9991C2.2344 9.00383 2.30428 8.98989 2.36623 8.95887L5.03099 7.63023L7.69576 8.95887ZM4.92417 0.4288C4.92413 0.428719 4.92409 0.428638 4.92405 0.428557L4.92417 0.4288Z" fill="#FFB932" stroke="black"/>
</svg>
